<svg xmlns="http://www.w3.org/2000/svg" fill="none" viewBox="0 0 512 512">
  <defs/>
  <path fill="white" stroke="black" stroke-width="10px" class="fill" d="M384.304 39.042l1.575 138.35-120.67 57.927-1.488-130.629 120.583-65.648zm120.965 218.005l-119.455 68.327-119.526-68.435 119.464-62.752 119.517 62.86zm-260.229 0l-119.455 68.327L6.059 256.939l119.464-62.752 119.517 62.86zM124.243 38.475l123.986 61.406-3.17 133.816-117.066-57.978-3.75-137.244zm263.435 435.05l-123.986-61.406 3.17-133.817 117.066 57.979 3.75 137.244zm-259.153 1.245l-1.576-138.35 120.671-57.927 1.488 130.628-120.583 65.649z" clip-rule="evenodd"/>
</svg>
